<?xml version="1.0" encoding="UTF-8" standalone="no"?>
<svg
   xmlns:dc="http://purl.org/dc/elements/1.1/"
   xmlns:cc="http://creativecommons.org/ns#"
   xmlns:rdf="http://www.w3.org/1999/02/22-rdf-syntax-ns#"
   xmlns:svg="http://www.w3.org/2000/svg"
   xmlns="http://www.w3.org/2000/svg"
   xmlns:xlink="http://www.w3.org/1999/xlink"
   xmlns:sodipodi="http://sodipodi.sourceforge.net/DTD/sodipodi-0.dtd"
   xmlns:inkscape="http://www.inkscape.org/namespaces/inkscape"
   height="60"
   width="60"
   _SVGFile__filename="oldscale/mimetypes/binary.svg"
   version="1.0"
   y="0"
   x="0"
   id="svg1"
   sodipodi:version="0.32"
   inkscape:version="0.46"
   sodipodi:docname="loadbinary.svg"
   sodipodi:docbase="/home/danny/work/flat/SVG/mono/scalable/mimetypes"
   inkscape:output_extension="org.inkscape.output.svg.inkscape">
  <sodipodi:namedview
     id="base"
     pagecolor="#ffffff"
     bordercolor="#666666"
     borderopacity="1.0"
     inkscape:pageopacity="0.0"
     inkscape:pageshadow="2"
     inkscape:zoom="25.659645"
     inkscape:cx="32.406191"
     inkscape:cy="-1.2186701"
     inkscape:window-width="821"
     inkscape:window-height="735"
     inkscape:window-x="4"
     inkscape:window-y="0"
     inkscape:current-layer="svg1"
     showgrid="false"
     showguides="true"
     inkscape:guide-bbox="true" />
  <defs
     id="defs3">
    <inkscape:perspective
       sodipodi:type="inkscape:persp3d"
       inkscape:vp_x="0 : 30 : 1"
       inkscape:vp_y="0 : 1000 : 0"
       inkscape:vp_z="60 : 30 : 1"
       inkscape:persp3d-origin="30 : 20 : 1"
       id="perspective2538" />
    <linearGradient
       id="linearGradient900">
      <stop
         style="stop-color: #000000;stop-opacity: 1.0;"
         id="stop901"
         offset="0" />
      <stop
         style="stop-color:#ffffff;stop-opacity:1;"
         id="stop902"
         offset="1" />
    </linearGradient>
    <linearGradient
       xlink:href="#linearGradient900"
       id="linearGradient903" />
    <linearGradient
       xlink:href="#linearGradient900"
       id="linearGradient904" />
    <linearGradient
       xlink:href="#linearGradient900"
       id="linearGradient905" />
    <linearGradient
       xlink:href="#linearGradient900"
       id="linearGradient906" />
    <linearGradient
       xlink:href="#linearGradient900"
       id="linearGradient907" />
  </defs>
  <path
     style="font-size:12.000000;fill:none;fill-opacity:1.0000000;fill-rule:evenodd;stroke:#ffffff;stroke-width:8.1250000;stroke-linecap:round;stroke-linejoin:round;stroke-miterlimit:4.0000000;stroke-opacity:1.0000000;"
     d="M 6.6825975,4.6879105 C 5.5772035,4.6879105 4.6873015,5.5841475 4.6873015,6.6974115 L 4.6873015,53.302589 C 4.6873015,54.415849 5.5772035,55.312089 6.6825975,55.312089 L 53.317398,55.312089 C 54.422798,55.312089 55.312698,54.415849 55.312698,53.302589 L 55.312698,6.6974115 C 55.312698,5.5841475 54.422798,4.6879105 53.317398,4.6879105 L 6.6825975,4.6879105 z "
     id="path1097" />
  <path
     style="font-size:12;fill: #ffffff;fill-rule:evenodd;stroke: #000000;stroke-width:3.124999;stroke-linecap:round;stroke-linejoin:round;"
     fill-opacity="1.0"
     d="M 6.682599 4.687911 C 5.577205 4.687911 4.687303 5.584148 4.687303 6.697411 L 4.687303 53.30259 C 4.687303 54.41585 5.577205 55.31209 6.682599 55.31209 L 53.3174 55.31209 C 54.4228 55.31209 55.3127 54.41585 55.3127 53.30259 L 55.3127 6.697411 C 55.3127 5.584148 54.4228 4.687911 53.3174 4.687911 L 6.682599 4.687911 z "
     stroke-opacity="1.0"
     id="rect812" />
  <path
     style="font-size:12;fill: #000000;stroke-width:1;font-family:VAG Rounded Black SSi;"
     fill-opacity="1.0"
     d="M 47.39714,18.2089 C 47.86838,18.2089 48.22933,18.00587 48.47999,17.5998 C 48.73065,17.18871 48.89108,16.71245 48.96126,16.17103 C 49.03646,15.6296 49.07406,15.10321 49.07406,14.59186 C 49.07406,14.06046 49.03646,13.52655 48.96126,12.99014 C 48.89108,12.45372 48.73065,11.98499 48.47999,11.58393 C 48.23434,11.18287 47.87339,10.98234 47.39714,10.98234 C 46.92088,10.98234 46.55742,11.18287 46.30676,11.58393 C 46.06111,11.98499 45.90069,12.45372 45.82549,12.99014 C 45.75531,13.52655 45.72021,14.06046 45.72021,14.59186 C 45.72021,15.49424 45.8305,16.32393 46.05109,17.08093 C 46.27167,17.83291 46.72035,18.2089 47.39714,18.2089 z M 47.39714,20.32197 C 46.42457,20.32197 45.63248,20.03622 45.02087,19.46471 C 44.40926,18.89321 43.9706,18.17381 43.7049,17.30652 C 43.44421,16.43923 43.31387,15.53435 43.31387,14.59186 C 43.31387,13.90505 43.38405,13.23328 43.52442,12.57654 C 43.66479,11.9148 43.8954,11.30319 44.21625,10.74171 C 44.53709,10.17521 44.96071,9.724021 45.4871,9.388134 C 46.0185,9.047235 46.65518,8.876786 47.39714,8.876786 C 48.14411,8.876786 48.77828,9.047235 49.29965,9.388134 C 49.82604,9.724021 50.24715,10.1727 50.56299,10.73419 C 50.88383,11.29567 51.11444,11.90979 51.25481,12.57654 C 51.40019,13.2433 51.47289,13.91508 51.47289,14.59186 C 51.47289,15.26864 51.40019,15.94292 51.25481,16.6147 C 51.11444,17.28146 50.88634,17.89557 50.57051,18.45706 C 50.25467,19.01854 49.83106,19.46973 49.29965,19.81063 C 48.76825,20.15152 48.13408,20.32197 47.39714,20.32197 z M 38.55381,18.2089 C 39.02506,18.2089 39.38601,18.00587 39.63667,17.5998 C 39.88733,17.18871 40.04775,16.71245 40.11794,16.17103 C 40.19313,15.6296 40.23074,15.10321 40.23074,14.59186 C 40.23074,14.06046 40.19313,13.52655 40.11794,12.99014 C 40.04775,12.45372 39.88733,11.98499 39.63667,11.58393 C 39.39102,11.18287 39.03007,10.98234 38.55381,10.98234 C 38.07756,10.98234 37.7141,11.18287 37.46343,11.58393 C 37.21779,11.98499 37.05736,12.45372 36.98217,12.99014 C 36.91198,13.52655 36.87689,14.06046 36.87689,14.59186 C 36.87689,15.49424 36.98718,16.32393 37.20776,17.08093 C 37.42834,17.83291 37.87703,18.2089 38.55381,18.2089 z M 38.55381,20.32197 C 37.58125,20.32197 36.78916,20.03622 36.17754,19.46471 C 35.56593,18.89321 35.12727,18.17381 34.86157,17.30652 C 34.60088,16.43923 34.47054,15.53435 34.47054,14.59186 C 34.47054,13.90505 34.54073,13.23328 34.6811,12.57654 C 34.82147,11.9148 35.05208,11.30319 35.37292,10.74171 C 35.69377,10.17521 36.11738,9.724021 36.64377,9.388134 C 37.17518,9.047235 37.81186,8.876786 38.55381,8.876786 C 39.30078,8.876786 39.93495,9.047235 40.45633,9.388134 C 40.98272,9.724021 41.40383,10.1727 41.71966,10.73419 C 42.04051,11.29567 42.27112,11.90979 42.41149,12.57654 C 42.55687,13.2433 42.62956,13.91508 42.62956,14.59186 C 42.62956,15.26864 42.55687,15.94292 42.41149,16.6147 C 42.27112,17.28146 42.04301,17.89557 41.72718,18.45706 C 41.41135,19.01854 40.98773,19.46973 40.45633,19.81063 C 39.92493,20.15152 39.29075,20.32197 38.55381,20.32197 z M 30.77078,19.006 L 30.77078,11.20041 L 29.86088,11.20041 C 29.51497,11.20041 29.25428,11.09764 29.07882,10.8921 C 28.90336,10.68656 28.81563,10.4359 28.81563,10.14012 C 28.81563,9.849352 28.90837,9.596183 29.09386,9.380615 C 29.28436,9.165046 29.54004,9.057261 29.86088,9.057261 L 32.04915,9.057261 C 32.26472,9.057261 32.45021,9.107394 32.60562,9.207658 C 32.76103,9.30291 32.87884,9.433253 32.95906,9.598689 C 33.03927,9.759114 33.07937,9.949616 33.07937,10.1702 L 33.07937,19.006 C 33.07937,19.39703 32.97409,19.69783 32.76354,19.90838 C 32.55298,20.11894 32.27475,20.22422 31.92884,20.22422 C 31.58794,20.22422 31.3097,20.11643 31.09414,19.90086 C 30.87857,19.6853 30.77078,19.38701 30.77078,19.006 z M 25.07075,19.006 L 25.07075,11.20041 L 24.16085,11.20041 C 23.81494,11.20041 23.55425,11.09764 23.37879,10.8921 C 23.20332,10.68656 23.11559,10.4359 23.11559,10.14012 C 23.11559,9.849352 23.20834,9.596183 23.39383,9.380615 C 23.58433,9.165046 23.84,9.057261 24.16085,9.057261 L 26.34912,9.057261 C 26.56469,9.057261 26.75018,9.107394 26.90559,9.207658 C 27.061,9.30291 27.17881,9.433253 27.25902,9.598689 C 27.33923,9.759114 27.37934,9.949616 27.37934,10.1702 L 27.37934,19.006 C 27.37934,19.39703 27.27406,19.69783 27.0635,19.90838 C 26.85295,20.11894 26.57472,20.22422 26.2288,20.22422 C 25.8879,20.22422 25.60967,20.11643 25.3941,19.90086 C 25.17853,19.6853 25.07075,19.38701 25.07075,19.006 z M 18.31042,18.2089 C 18.78166,18.2089 19.14261,18.00587 19.39327,17.5998 C 19.64394,17.18871 19.80436,16.71245 19.87454,16.17103 C 19.94974,15.6296 19.98734,15.10321 19.98734,14.59186 C 19.98734,14.06046 19.94974,13.52655 19.87454,12.99014 C 19.80436,12.45372 19.64394,11.98499 19.39327,11.58393 C 19.14763,11.18287 18.78667,10.98234 18.31042,10.98234 C 17.83416,10.98234 17.4707,11.18287 17.22004,11.58393 C 16.97439,11.98499 16.81397,12.45372 16.73877,12.99014 C 16.66859,13.52655 16.63349,14.06046 16.63349,14.59186 C 16.63349,15.49424 16.74379,16.32393 16.96437,17.08093 C 17.18495,17.83291 17.63363,18.2089 18.31042,18.2089 z M 18.31042,20.32197 C 17.33785,20.32197 16.54576,20.03622 15.93415,19.46471 C 15.32254,18.89321 14.88388,18.17381 14.61818,17.30652 C 14.35749,16.43923 14.22715,15.53435 14.22715,14.59186 C 14.22715,13.90505 14.29733,13.23328 14.4377,12.57654 C 14.57807,11.9148 14.80868,11.30319 15.12953,10.74171 C 15.45037,10.17521 15.87399,9.724021 16.40038,9.388134 C 16.93178,9.047235 17.56846,8.876786 18.31042,8.876786 C 19.05739,8.876786 19.69156,9.047235 20.21294,9.388134 C 20.73932,9.724021 21.16043,10.1727 21.47627,10.73419 C 21.79711,11.29567 22.02772,11.90979 22.16809,12.57654 C 22.31348,13.2433 22.38617,13.91508 22.38617,14.59186 C 22.38617,15.26864 22.31348,15.94292 22.16809,16.6147 C 22.02772,17.28146 21.79962,17.89557 21.48379,18.45706 C 21.16795,19.01854 20.74434,19.46973 20.21294,19.81063 C 19.68153,20.15152 19.04736,20.32197 18.31042,20.32197 z M 10.52739,19.006 L 10.52739,11.20041 L 9.617489,11.20041 C 9.271577,11.20041 9.010889,11.09764 8.835426,10.8921 C 8.659963,10.68656 8.572232,10.4359 8.572232,10.14012 C 8.572232,9.849352 8.664977,9.596183 8.850466,9.380615 C 9.040968,9.165046 9.296643,9.057261 9.617489,9.057261 L 11.80576,9.057261 C 12.02133,9.057261 12.20682,9.107394 12.36223,9.207658 C 12.51764,9.30291 12.63545,9.433253 12.71566,9.598689 C 12.79587,9.759114 12.83598,9.949616 12.83598,10.1702 L 12.83598,19.006 C 12.83598,19.39703 12.7307,19.69783 12.52014,19.90838 C 12.30959,20.11894 12.03136,20.22422 11.68544,20.22422 C 11.34454,20.22422 11.06631,20.11643 10.85074,19.90086 C 10.63517,19.6853 10.52739,19.38701 10.52739,19.006 z M 47.39714,33.60952 C 47.86838,33.60952 48.22933,33.40649 48.47999,33.00042 C 48.73065,32.58933 48.89108,32.11307 48.96126,31.57165 C 49.03646,31.03022 49.07406,30.50383 49.07406,29.99248 C 49.07406,29.46108 49.03646,28.92717 48.96126,28.39076 C 48.89108,27.85434 48.73065,27.38561 48.47999,26.98455 C 48.23434,26.58349 47.87339,26.38296 47.39714,26.38296 C 46.92088,26.38296 46.55742,26.58349 46.30676,26.98455 C 46.06111,27.38561 45.90069,27.85434 45.82549,28.39076 C 45.75531,28.92717 45.72021,29.46108 45.72021,29.99248 C 45.72021,30.89486 45.8305,31.72455 46.05109,32.48155 C 46.27167,33.23353 46.72035,33.60952 47.39714,33.60952 z M 47.39714,35.72259 C 46.42457,35.72259 45.63248,35.43684 45.02087,34.86533 C 44.40926,34.29383 43.9706,33.57443 43.7049,32.70714 C 43.44421,31.83985 43.31387,30.93497 43.31387,29.99248 C 43.31387,29.30567 43.38405,28.6339 43.52442,27.97717 C 43.66479,27.31542 43.8954,26.70381 44.21625,26.14233 C 44.53709,25.57583 44.96071,25.12464 45.4871,24.78876 C 46.0185,24.44786 46.65518,24.27741 47.39714,24.27741 C 48.14411,24.27741 48.77828,24.44786 49.29965,24.78876 C 49.82604,25.12464 50.24715,25.57333 50.56299,26.13481 C 50.88383,26.69629 51.11444,27.31041 51.25481,27.97717 C 51.40019,28.64392 51.47289,29.3157 51.47289,29.99248 C 51.47289,30.66927 51.40019,31.34354 51.25481,32.01532 C 51.11444,32.68208 50.88634,33.29619 50.57051,33.85768 C 50.25467,34.41916 49.83106,34.87035 49.29965,35.21125 C 48.76825,35.55215 48.13408,35.72259 47.39714,35.72259 z M 39.61411,34.40662 L 39.61411,26.60103 L 38.70421,26.60103 C 38.3583,26.60103 38.09761,26.49826 37.92215,26.29272 C 37.74668,26.08718 37.65895,25.83652 37.65895,25.54074 C 37.65895,25.24997 37.7517,24.9968 37.93719,24.78124 C 38.12769,24.56567 38.38336,24.45788 38.70421,24.45788 L 40.89248,24.45788 C 41.10805,24.45788 41.29354,24.50802 41.44895,24.60828 C 41.60436,24.70353 41.72217,24.83387 41.80238,24.99931 C 41.88259,25.15974 41.9227,25.35024 41.9227,25.57082 L 41.9227,34.40662 C 41.9227,34.79765 41.81742,35.09845 41.60686,35.309 C 41.39631,35.51956 41.11807,35.62484 40.77216,35.62484 C 40.43126,35.62484 40.15303,35.51705 39.93746,35.30148 C 39.72189,35.08592 39.61411,34.78763 39.61411,34.40662 z M 33.91407,34.40662 L 33.91407,26.60103 L 33.00417,26.60103 C 32.65826,26.60103 32.39758,26.49826 32.22211,26.29272 C 32.04665,26.08718 31.95892,25.83652 31.95892,25.54074 C 31.95892,25.24997 32.05166,24.9968 32.23715,24.78124 C 32.42765,24.56567 32.68333,24.45788 33.00417,24.45788 L 35.19245,24.45788 C 35.40801,24.45788 35.5935,24.50802 35.74891,24.60828 C 35.90432,24.70353 36.02213,24.83387 36.10234,24.99931 C 36.18256,25.15974 36.22266,25.35024 36.22266,25.57082 L 36.22266,34.40662 C 36.22266,34.79765 36.11738,35.09845 35.90683,35.309 C 35.69628,35.51956 35.41804,35.62484 35.07213,35.62484 C 34.73123,35.62484 34.453,35.51705 34.23743,35.30148 C 34.02186,35.08592 33.91407,34.78763 33.91407,34.40662 z M 27.15374,33.60952 C 27.62499,33.60952 27.98594,33.40649 28.2366,33.00042 C 28.48726,32.58933 28.64768,32.11307 28.71787,31.57165 C 28.79307,31.03022 28.83067,30.50383 28.83067,29.99248 C 28.83067,29.46108 28.79307,28.92717 28.71787,28.39076 C 28.64768,27.85434 28.48726,27.38561 28.2366,26.98455 C 27.99095,26.58349 27.63,26.38296 27.15374,26.38296 C 26.67749,26.38296 26.31403,26.58349 26.06337,26.98455 C 25.81772,27.38561 25.6573,27.85434 25.5821,28.39076 C 25.51191,28.92717 25.47682,29.46108 25.47682,29.99248 C 25.47682,30.89486 25.58711,31.72455 25.80769,32.48155 C 26.02827,33.23353 26.47696,33.60952 27.15374,33.60952 z M 27.15374,35.72259 C 26.18118,35.72259 25.38909,35.43684 24.77748,34.86533 C 24.16586,34.29383 23.72721,33.57443 23.4615,32.70714 C 23.20082,31.83985 23.07047,30.93497 23.07047,29.99248 C 23.07047,29.30567 23.14066,28.6339 23.28103,27.97717 C 23.4214,27.31542 23.65201,26.70381 23.97285,26.14233 C 24.2937,25.57583 24.71732,25.12464 25.2437,24.78876 C 25.77511,24.44786 26.41179,24.27741 27.15374,24.27741 C 27.90071,24.27741 28.53489,24.44786 29.05626,24.78876 C 29.58265,25.12464 30.00376,25.57333 30.31959,26.13481 C 30.64044,26.69629 30.87105,27.31041 31.01142,27.97717 C 31.1568,28.64392 31.22949,29.3157 31.22949,29.99248 C 31.22949,30.66927 31.1568,31.34354 31.01142,32.01532 C 30.87105,32.68208 30.64295,33.29619 30.32711,33.85768 C 30.01128,34.41916 29.58766,34.87035 29.05626,35.21125 C 28.52486,35.55215 27.89069,35.72259 27.15374,35.72259 z M 19.37071,34.40662 L 19.37071,26.60103 L 18.46082,26.60103 C 18.1149,26.60103 17.85421,26.49826 17.67875,26.29272 C 17.50329,26.08718 17.41556,25.83652 17.41556,25.54074 C 17.41556,25.24997 17.5083,24.9968 17.69379,24.78124 C 17.88429,24.56567 18.13997,24.45788 18.46082,24.45788 L 20.64909,24.45788 C 20.86465,24.45788 21.05014,24.50802 21.20555,24.60828 C 21.36096,24.70353 21.47877,24.83387 21.55899,24.99931 C 21.6392,25.15974 21.6793,25.35024 21.6793,25.57082 L 21.6793,34.40662 C 21.6793,34.79765 21.57403,35.09845 21.36347,35.309 C 21.15292,35.51956 20.87468,35.62484 20.52877,35.62484 C 20.18787,35.62484 19.90964,35.51705 19.69407,35.30148 C 19.4785,35.08592 19.37071,34.78763 19.37071,34.40662 z M 12.61038,33.60952 C 13.08163,33.60952 13.44258,33.40649 13.69324,33.00042 C 13.9439,32.58933 14.10432,32.11307 14.17451,31.57165 C 14.24971,31.03022 14.28731,30.50383 14.28731,29.99248 C 14.28731,29.46108 14.24971,28.92717 14.17451,28.39076 C 14.10432,27.85434 13.9439,27.38561 13.69324,26.98455 C 13.44759,26.58349 13.08664,26.38296 12.61038,26.38296 C 12.13413,26.38296 11.77067,26.58349 11.52001,26.98455 C 11.27436,27.38561 11.11394,27.85434 11.03874,28.39076 C 10.96855,28.92717 10.93346,29.46108 10.93346,29.99248 C 10.93346,30.89486 11.04375,31.72455 11.26433,32.48155 C 11.48492,33.23353 11.9336,33.60952 12.61038,33.60952 z M 12.61038,35.72259 C 11.63782,35.72259 10.84573,35.43684 10.23412,34.86533 C 9.622502,34.29383 9.183845,33.57443 8.918144,32.70714 C 8.657457,31.83985 8.527113,30.93497 8.527113,29.99248 C 8.527113,29.30567 8.597298,28.6339 8.737668,27.97717 C 8.878039,27.31542 9.108647,26.70381 9.429493,26.14233 C 9.750339,25.57583 10.17396,25.12464 10.70035,24.78876 C 11.23175,24.44786 11.86843,24.27741 12.61038,24.27741 C 13.35735,24.27741 13.99153,24.44786 14.5129,24.78876 C 15.03929,25.12464 15.4604,25.57333 15.77623,26.13481 C 16.09708,26.69629 16.32769,27.31041 16.46806,27.97717 C 16.61344,28.64392 16.68613,29.3157 16.68613,29.99248 C 16.68613,30.66927 16.61344,31.34354 16.46806,32.01532 C 16.32769,32.68208 16.09959,33.29619 15.78375,33.85768 C 15.46792,34.41916 15.0443,34.87035 14.5129,35.21125 C 13.9815,35.55215 13.34733,35.72259 12.61038,35.72259 z M 48.45743,49.80725 L 48.45743,42.00166 L 47.54753,42.00166 C 47.20162,42.00166 46.94093,41.89888 46.76547,41.69334 C 46.59001,41.4878 46.50228,41.23714 46.50228,40.94136 C 46.50228,40.65059 46.59502,40.39742 46.78051,40.18186 C 46.97101,39.96629 47.22669,39.8585 47.54753,39.8585 L 49.7358,39.8585 C 49.95137,39.8585 50.13686,39.90864 50.29227,40.0089 C 50.44768,40.10415 50.56549,40.2345 50.64571,40.39993 C 50.72592,40.56036 50.76602,40.75086 50.76602,40.97144 L 50.76602,49.80725 C 50.76602,50.19828 50.66074,50.49907 50.45019,50.70963 C 50.23963,50.92018 49.9614,51.02546 49.61549,51.02546 C 49.27459,51.02546 48.99636,50.91767 48.78079,50.70211 C 48.56522,50.48654 48.45743,50.18825 48.45743,49.80725 z M 41.6971,49.01014 C 42.16835,49.01014 42.5293,48.80711 42.77996,48.40104 C 43.03062,47.98995 43.19104,47.51369 43.26123,46.97227 C 43.33643,46.43084 43.37403,45.90445 43.37403,45.3931 C 43.37403,44.8617 43.33643,44.32779 43.26123,43.79138 C 43.19104,43.25496 43.03062,42.78623 42.77996,42.38517 C 42.53431,41.98411 42.17336,41.78358 41.6971,41.78358 C 41.22085,41.78358 40.85739,41.98411 40.60673,42.38517 C 40.36108,42.78623 40.20066,43.25496 40.12546,43.79138 C 40.05527,44.32779 40.02018,44.8617 40.02018,45.3931 C 40.02018,46.29548 40.13047,47.12517 40.35105,47.88217 C 40.57163,48.63415 41.02032,49.01014 41.6971,49.01014 z M 41.6971,51.12322 C 40.72454,51.12322 39.93245,50.83746 39.32084,50.26595 C 38.70922,49.69445 38.27056,48.97505 38.00486,48.10776 C 37.74418,47.24048 37.61383,46.33559 37.61383,45.3931 C 37.61383,44.70629 37.68402,44.03452 37.82439,43.37779 C 37.96476,42.71604 38.19537,42.10443 38.51621,41.54295 C 38.83706,40.97645 39.26068,40.52526 39.78706,40.18938 C 40.31847,39.84848 40.95515,39.67803 41.6971,39.67803 C 42.44407,39.67803 43.07825,39.84848 43.59962,40.18938 C 44.12601,40.52526 44.54712,40.97395 44.86295,41.53543 C 45.1838,42.09691 45.41441,42.71103 45.55478,43.37779 C 45.70016,44.04454 45.77285,44.71632 45.77285,45.3931 C 45.77285,46.06989 45.70016,46.74417 45.55478,47.41594 C 45.41441,48.0827 45.1863,48.69682 44.87047,49.2583 C 44.55464,49.81978 44.13102,50.27097 43.59962,50.61187 C 43.06822,50.95277 42.43405,51.12322 41.6971,51.12322 z M 33.91407,49.80725 L 33.91407,42.00166 L 33.00417,42.00166 C 32.65826,42.00166 32.39758,41.89888 32.22211,41.69334 C 32.04665,41.4878 31.95892,41.23714 31.95892,40.94136 C 31.95892,40.65059 32.05166,40.39742 32.23715,40.18186 C 32.42765,39.96629 32.68333,39.8585 33.00417,39.8585 L 35.19245,39.8585 C 35.40801,39.8585 35.5935,39.90864 35.74891,40.0089 C 35.90432,40.10415 36.02213,40.2345 36.10234,40.39993 C 36.18256,40.56036 36.22266,40.75086 36.22266,40.97144 L 36.22266,49.80725 C 36.22266,50.19828 36.11738,50.49907 35.90683,50.70963 C 35.69628,50.92018 35.41804,51.02546 35.07213,51.02546 C 34.73123,51.02546 34.453,50.91767 34.23743,50.70211 C 34.02186,50.48654 33.91407,50.18825 33.91407,49.80725 z"
     id="path843"
     sodipodi:nodetypes="cssssssssssccssssssssssssssccssssssssssccssssssssssssssccccsssccssccsssccccsssccssccsssccssssssssssccssssssssssssssccccsssccssccsssccssssssssssccssssssssssssssccccsssccssccsssccccsssccssccsssccssssssssssccssssssssssssssccccsssccssccsssccssssssssssccssssssssssssssccccsssccssccsssccssssssssssccssssssssssssssccccsssccssccsssc" />
  <metadata
     id="metadata14">
    <RDF
       id="RDF15">
      <Work
         about=""
         id="Work16">
        <title
           id="title17">Part of the Flat Icon Collection (Thu Aug 26 14:40:35 2004)</title>
        <description
           id="description19" />
        <subject
           id="subject20">
          <Bag
             id="Bag21">
            <li
               id="li22" />
          </Bag>
        </subject>
        <publisher
           id="publisher23">
          <Agent
             about=""
             id="Agent24">
            <title
               id="title25" />
          </Agent>
        </publisher>
        <creator
           id="creator26">
          <Agent
             about=""
             id="Agent27">
            <title
               id="title28">Danny Allen</title>
          </Agent>
        </creator>
        <rights
           id="rights30">
          <Agent
             about=""
             id="Agent31">
            <title
               id="title32">Danny Allen</title>
          </Agent>
        </rights>
        <date
           id="date34" />
        <format
           id="format35">image/svg+xml</format>
        <type
           id="type37"
           resource="http://purl.org/dc/dcmitype/StillImage" />
        <license
           id="license38"
           resource="http://creativecommons.org/licenses/LGPL/2.1/">
          <date
             id="date39" />
        </license>
        <language
           id="language40">en</language>
      </Work>
    </RDF>
    <rdf:RDF>
      <cc:Work
         rdf:about="">
        <dc:format>image/svg+xml</dc:format>
        <dc:type
           rdf:resource="http://purl.org/dc/dcmitype/StillImage" />
      </cc:Work>
    </rdf:RDF>
  </metadata>
  <g
     id="g1713"
     transform="matrix(0.958167,0,0,0.958167,4.9582796,-4.5262514)"
     style="fill:#ffcc00;stroke:#ffcc00">
    <path
       style="font-size:12px;fill:#ffcc00;fill-opacity:1;fill-rule:evenodd;stroke:#ffcc00;stroke-width:3.26143432;stroke-linecap:round;stroke-linejoin:round;stroke-opacity:1"
       d="M 24.82122,56.32643 L 14.39974,47.02924 L 4.305931,56.40327 L 24.82122,56.32643 z"
       id="path878" />
  </g>
</svg>
