<?xml version="1.0" encoding="UTF-8" standalone="no"?>
<svg
   xmlns:dc="http://purl.org/dc/elements/1.1/"
   xmlns:cc="http://creativecommons.org/ns#"
   xmlns:rdf="http://www.w3.org/1999/02/22-rdf-syntax-ns#"
   xmlns:svg="http://www.w3.org/2000/svg"
   xmlns="http://www.w3.org/2000/svg"
   xmlns:xlink="http://www.w3.org/1999/xlink"
   xmlns:sodipodi="http://sodipodi.sourceforge.net/DTD/sodipodi-0.dtd"
   xmlns:inkscape="http://www.inkscape.org/namespaces/inkscape"
   height="60"
   width="60"
   _SVGFile__filename="oldscale/mimetypes/ascii.svg"
   version="1.0"
   y="0"
   x="0"
   id="svg1"
   sodipodi:version="0.32"
   inkscape:version="0.46"
   sodipodi:docname="loadascii.svg"
   sodipodi:docbase="/home/danny/work/flat/SVG/mono/scalable/mimetypes"
   inkscape:output_extension="org.inkscape.output.svg.inkscape">
  <sodipodi:namedview
     id="base"
     pagecolor="#ffffff"
     bordercolor="#666666"
     borderopacity="1.0"
     inkscape:pageopacity="0.0"
     inkscape:pageshadow="2"
     inkscape:zoom="3.4732669"
     inkscape:cx="66.302243"
     inkscape:cy="34.581061"
     inkscape:window-width="1024"
     inkscape:window-height="713"
     inkscape:window-x="598"
     inkscape:window-y="40"
     inkscape:current-layer="svg1"
     showgrid="false" />
  <defs
     id="defs3">
    <inkscape:perspective
       sodipodi:type="inkscape:persp3d"
       inkscape:vp_x="0 : 30 : 1"
       inkscape:vp_y="0 : 1000 : 0"
       inkscape:vp_z="60 : 30 : 1"
       inkscape:persp3d-origin="30 : 20 : 1"
       id="perspective6330" />
    <linearGradient
       id="linearGradient900">
      <stop
         style="stop-color: #000000;stop-opacity: 1.0;"
         id="stop901"
         offset="0" />
      <stop
         style="stop-color:#ffffff;stop-opacity:1;"
         id="stop902"
         offset="1" />
    </linearGradient>
    <linearGradient
       xlink:href="#linearGradient900"
       id="linearGradient903" />
    <linearGradient
       xlink:href="#linearGradient900"
       id="linearGradient904" />
    <linearGradient
       xlink:href="#linearGradient900"
       id="linearGradient905" />
    <linearGradient
       xlink:href="#linearGradient900"
       id="linearGradient906" />
    <linearGradient
       xlink:href="#linearGradient900"
       id="linearGradient907" />
  </defs>
  <path
     style="font-size:12.000000;fill:none;fill-opacity:1.0000000;fill-rule:evenodd;stroke:#ffffff;stroke-width:8.1250000;stroke-linecap:round;stroke-linejoin:round;stroke-miterlimit:4.0000000;stroke-opacity:1.0000000;"
     d="M 6.6825975,4.6879105 C 5.5772035,4.6879105 4.6873015,5.5841475 4.6873015,6.6974115 L 4.6873015,53.302589 C 4.6873015,54.415849 5.5772035,55.312089 6.6825975,55.312089 L 53.317398,55.312089 C 54.422798,55.312089 55.312698,54.415849 55.312698,53.302589 L 55.312698,6.6974115 C 55.312698,5.5841475 54.422798,4.6879105 53.317398,4.6879105 L 6.6825975,4.6879105 z "
     id="path1097" />
  <path
     style="font-size:12;fill: #ffffff;fill-rule:evenodd;stroke: #000000;stroke-width:3.124999;stroke-linecap:round;stroke-linejoin:round;"
     fill-opacity="1.0"
     d="M 6.682599 4.687911 C 5.577205 4.687911 4.687303 5.584148 4.687303 6.697411 L 4.687303 53.30259 C 4.687303 54.41585 5.577205 55.31209 6.682599 55.31209 L 53.3174 55.31209 C 54.4228 55.31209 55.3127 54.41585 55.3127 53.30259 L 55.3127 6.697411 C 55.3127 5.584148 54.4228 4.687911 53.3174 4.687911 L 6.682599 4.687911 z "
     stroke-opacity="1.0"
     id="rect812" />
  <path
     style="font-size:12;font-weight:900;fill: #000000;stroke-width:1;font-family:VAG Rounded Black SSi;"
     fill-opacity="1.0"
     d="M 47.21173 36.8452 L 47.21173 28.179 C 47.21173 27.65976 47.37262 27.22828 47.69441 26.88455 C 48.02351 26.53352 48.44402 26.358 48.95594 26.358 C 49.47518 26.358 49.8957 26.53352 50.21748 26.88455 C 50.54658 27.22828 50.71112 27.65976 50.71112 28.179 L 50.71112 36.8452 C 50.71112 37.36444 50.54658 37.80324 50.21748 38.16159 C 49.8957 38.51262 49.47518 38.68814 48.95594 38.68814 C 48.44402 38.68814 48.02351 38.51262 47.69441 38.16159 C 47.37262 37.80324 47.21173 37.36444 47.21173 36.8452 z M 46.87167 23.18771 C 46.87167 22.61727 47.07644 22.12363 47.48598 21.70677 C 47.89552 21.28992 48.38551 21.08149 48.95594 21.08149 C 49.53369 21.08149 50.02734 21.28626 50.43688 21.6958 C 50.84642 22.10535 51.05119 22.60265 51.05119 23.18771 C 51.05119 23.79471 50.84642 24.29932 50.43688 24.70155 C 50.02734 25.10378 49.53369 25.30489 48.95594 25.30489 C 48.38551 25.30489 47.89552 25.10012 47.48598 24.69058 C 47.07644 24.28104 46.87167 23.78008 46.87167 23.18771 z M 42.22044 36.8452 L 42.22044 28.179 C 42.22044 27.65976 42.38133 27.22828 42.70312 26.88455 C 43.03221 26.53352 43.45272 26.358 43.96465 26.358 C 44.48389 26.358 44.9044 26.53352 45.22619 26.88455 C 45.55528 27.22828 45.71983 27.65976 45.71983 28.179 L 45.71983 36.8452 C 45.71983 37.36444 45.55528 37.80324 45.22619 38.16159 C 44.9044 38.51262 44.48389 38.68814 43.96465 38.68814 C 43.45272 38.68814 43.03221 38.51262 42.70312 38.16159 C 42.38133 37.80324 42.22044 37.36444 42.22044 36.8452 z M 41.88038 23.18771 C 41.88038 22.61727 42.08515 22.12363 42.49469 21.70677 C 42.90423 21.28992 43.39422 21.08149 43.96465 21.08149 C 44.5424 21.08149 45.03604 21.28626 45.44558 21.6958 C 45.85513 22.10535 46.0599 22.60265 46.0599 23.18771 C 46.0599 23.79471 45.85513 24.29932 45.44558 24.70155 C 45.03604 25.10378 44.5424 25.30489 43.96465 25.30489 C 43.39422 25.30489 42.90423 25.10012 42.49469 24.69058 C 42.08515 24.28104 41.88038 23.78008 41.88038 23.18771 z M 31.41511 32.5121 C 31.41511 31.34929 31.66376 30.2779 32.16107 29.29793 C 32.65837 28.31064 33.35312 27.53543 34.24534 26.97231 C 35.14487 26.40919 36.16873 26.12763 37.31691 26.12763 C 37.92391 26.12763 38.54919 26.20077 39.19276 26.34703 C 39.83632 26.48598 40.3775 26.72732 40.8163 27.07104 C 41.25509 27.41476 41.47449 27.87916 41.47449 28.46422 C 41.47449 28.93226 41.33554 29.32352 41.05763 29.63799 C 40.78704 29.95246 40.44698 30.1097 40.03744 30.1097 C 39.83998 30.1097 39.64618 30.07679 39.45603 30.01097 C 39.2732 29.94515 39.08671 29.87567 38.89657 29.80254 C 38.71374 29.72209 38.51628 29.65628 38.30419 29.60508 C 38.09942 29.55389 37.8398 29.52829 37.52533 29.52829 C 36.9549 29.52829 36.47223 29.66359 36.07731 29.93418 C 35.68971 30.19746 35.39718 30.55581 35.19972 31.00923 C 35.00958 31.45534 34.9145 31.95629 34.9145 32.5121 C 34.9145 33.05328 35.00958 33.5579 35.19972 34.02594 C 35.38987 34.48668 35.66411 34.85234 36.02246 35.12293 C 36.38812 35.39352 36.81961 35.52882 37.31691 35.52882 C 37.88003 35.52882 38.4468 35.42277 39.01724 35.21069 C 39.58767 34.99861 39.92774 34.89256 40.03744 34.89256 C 40.30071 34.89256 40.54205 34.96935 40.76145 35.12293 C 40.98085 35.27651 41.15271 35.47762 41.27703 35.72627 C 41.40867 35.96761 41.47449 36.21626 41.47449 36.47223 C 41.47449 37.0134 41.23681 37.47048 40.76145 37.84346 C 40.2934 38.21644 39.73394 38.48703 39.08306 38.65523 C 38.43218 38.83075 37.84346 38.91851 37.31691 38.91851 C 36.44663 38.91851 35.64949 38.75762 34.92547 38.43583 C 34.20878 38.11405 33.58349 37.65697 33.04963 37.0646 C 32.51576 36.46491 32.10987 35.77747 31.83197 35.00226 C 31.55407 34.21975 31.41511 33.38969 31.41511 32.5121 z M 21.70678 36.47223 C 21.70678 35.97492 21.84573 35.56538 22.12363 35.2436 C 22.40885 34.92182 22.75257 34.76093 23.1548 34.76093 C 23.39614 34.76093 23.6265 34.80481 23.8459 34.89256 C 24.0653 34.97301 24.35783 35.10465 24.72349 35.28748 C 25.09647 35.463 25.40362 35.59098 25.64496 35.67142 C 25.8863 35.75187 26.17883 35.79209 26.52255 35.79209 C 26.85896 35.79209 27.10761 35.72627 27.2685 35.59464 C 27.42939 35.45568 27.50984 35.28382 27.50984 35.07905 C 27.50984 34.89622 27.45865 34.7463 27.35626 34.62929 C 27.25388 34.51228 27.11858 34.4172 26.95037 34.34407 C 26.78217 34.26362 26.54449 34.1649 26.23733 34.04788 C 25.93018 33.93087 25.4475 33.74073 24.78931 33.47745 C 24.10186 33.18492 23.57165 32.91067 23.19868 32.65471 C 22.8257 32.39143 22.53683 32.05868 22.33206 31.65645 C 22.12729 31.24691 22.0249 30.73864 22.0249 30.13164 C 22.0249 29.44419 22.20773 28.79331 22.5734 28.179 C 22.94637 27.56469 23.47658 27.07104 24.16403 26.69807 C 24.85879 26.31778 25.65227 26.12763 26.54449 26.12763 C 26.92478 26.12763 27.34895 26.17517 27.81699 26.27024 C 28.28504 26.358 28.7275 26.50792 29.14435 26.72001 C 29.56852 26.92478 29.91224 27.18805 30.17552 27.50984 C 30.44611 27.83162 30.5814 28.21191 30.5814 28.6507 C 30.5814 28.93592 30.51558 29.19554 30.38395 29.42957 C 30.25962 29.65628 30.0841 29.83179 29.85739 29.95612 C 29.63799 30.07313 29.393 30.13164 29.12241 30.13164 C 28.97614 30.13164 28.81525 30.09873 28.63974 30.03291 C 28.47153 29.96709 28.23019 29.86105 27.91572 29.71478 C 27.60857 29.56852 27.32701 29.45516 27.07104 29.37472 C 26.81508 29.29427 26.56277 29.25405 26.31412 29.25405 C 26.05816 29.25405 25.83876 29.31621 25.65593 29.44054 C 25.48041 29.56486 25.39265 29.75135 25.39265 30 C 25.39265 30.28522 25.67787 30.54849 26.2483 30.78983 C 26.81874 31.02386 27.48059 31.29444 28.23385 31.6016 C 28.99443 31.90876 29.62337 32.32196 30.12067 32.8412 C 30.62528 33.36044 30.87759 34.05885 30.87759 34.93644 C 30.87759 35.7409 30.67648 36.44663 30.27425 37.05363 C 29.87202 37.65331 29.32352 38.11405 28.62877 38.43583 C 27.94132 38.75762 27.19171 38.91851 26.37994 38.91851 C 25.18788 38.91851 24.10918 38.69545 23.14383 38.24935 C 22.18579 37.79592 21.70678 37.20355 21.70678 36.47223 z M 20.76337 28.179 L 20.76337 36.8452 C 20.76337 37.37176 20.59882 37.81055 20.26972 38.16159 C 19.94063 38.51262 19.52011 38.68814 19.00819 38.68814 C 18.60596 38.68814 18.26589 38.57844 17.98799 38.35904 C 17.7174 38.13965 17.51263 37.87637 17.37367 37.56921 C 16.97876 38.05189 16.53996 38.39561 16.05729 38.60038 C 15.58193 38.81247 15.01515 38.91851 14.35696 38.91851 C 13.35504 38.91851 12.44089 38.63695 11.61449 38.07383 C 10.79541 37.50339 10.14453 36.72819 9.661851 35.74821 C 9.18649 34.76093 8.94881 33.68222 8.94881 32.5121 C 8.94881 31.35661 9.18649 30.28887 9.661851 29.3089 C 10.14453 28.32161 10.79906 27.5464 11.62546 26.98328 C 12.45186 26.41285 13.36236 26.12763 14.35696 26.12763 C 15.02246 26.12763 15.58924 26.23002 16.05729 26.43479 C 16.53265 26.63956 16.97144 26.98694 17.37367 27.47693 C 17.50531 27.17708 17.71008 26.91746 17.98799 26.69807 C 18.26589 26.47136 18.60596 26.358 19.00819 26.358 C 19.52011 26.358 19.94063 26.53352 20.26972 26.88455 C 20.59882 27.22828 20.76337 27.65976 20.76337 28.179 z M 14.8506 29.52829 C 14.10465 29.52829 13.51594 29.81351 13.08445 30.38395 C 12.66029 30.95438 12.4482 31.66376 12.4482 32.5121 C 12.4482 33.05328 12.54327 33.5579 12.73342 34.02594 C 12.92356 34.48668 13.19781 34.85234 13.55616 35.12293 C 13.92182 35.39352 14.3533 35.52882 14.8506 35.52882 C 15.60387 35.52882 16.19258 35.2436 16.61675 34.67316 C 17.04092 34.09542 17.25301 33.37506 17.25301 32.5121 C 17.25301 31.65645 17.04092 30.94706 16.61675 30.38395 C 16.19258 29.81351 15.60387 29.52829 14.8506 29.52829 z "
     id="path837" />
  <metadata
     id="metadata14">
    <RDF
       id="RDF15">
      <Work
         about=""
         id="Work16">
        <title
           id="title17">Part of the Flat Icon Collection (Thu Aug 26 14:40:35 2004)</title>
        <description
           id="description19" />
        <subject
           id="subject20">
          <Bag
             id="Bag21">
            <li
               id="li22" />
          </Bag>
        </subject>
        <publisher
           id="publisher23">
          <Agent
             about=""
             id="Agent24">
            <title
               id="title25" />
          </Agent>
        </publisher>
        <creator
           id="creator26">
          <Agent
             about=""
             id="Agent27">
            <title
               id="title28">Danny Allen</title>
          </Agent>
        </creator>
        <rights
           id="rights30">
          <Agent
             about=""
             id="Agent31">
            <title
               id="title32">Danny Allen</title>
          </Agent>
        </rights>
        <date
           id="date34" />
        <format
           id="format35">image/svg+xml</format>
        <type
           id="type37"
           resource="http://purl.org/dc/dcmitype/StillImage" />
        <license
           id="license38"
           resource="http://creativecommons.org/licenses/LGPL/2.1/">
          <date
             id="date39" />
        </license>
        <language
           id="language40">en</language>
      </Work>
    </RDF>
    <rdf:RDF>
      <cc:Work
         rdf:about="">
        <dc:format>image/svg+xml</dc:format>
        <dc:type
           rdf:resource="http://purl.org/dc/dcmitype/StillImage" />
      </cc:Work>
    </rdf:RDF>
  </metadata>
  <g
     id="g1713"
     transform="matrix(0.958167,0,0,0.958167,4.9582796,-4.5262514)"
     style="fill:#ffcc00;stroke:#ffcc00">
    <path
       style="font-size:12px;fill:#ffcc00;fill-opacity:1;fill-rule:evenodd;stroke:#ffcc00;stroke-width:3.26143432;stroke-linecap:round;stroke-linejoin:round;stroke-opacity:1"
       d="M 24.82122,56.32643 L 14.39974,47.02924 L 4.305931,56.40327 L 24.82122,56.32643 z"
       id="path878" />
  </g>
</svg>
